<svg id="enter" xmlns="http://www.w3.org/2000/svg" width="41.081" height="41.081" viewBox="0 0 41.081 41.081">
  <path id="Path_109" data-name="Path 109" d="M17.545,210.568H1.284a1.284,1.284,0,0,1,0-2.568H17.545a1.284,1.284,0,0,1,0,2.568Zm0,0" transform="translate(0 -191.311)"/>
  <path id="Path_110" data-name="Path 110" d="M123.955,143.391a1.285,1.285,0,0,1-.907-2.193l5.512-5.512-5.512-5.51a1.284,1.284,0,0,1,1.816-1.816l6.419,6.419a1.284,1.284,0,0,1,0,1.816l-6.419,6.419A1.282,1.282,0,0,1,123.955,143.391Zm0,0" transform="translate(-112.829 -117.715)"/>
  <path id="Path_111" data-name="Path 111" d="M302.091,41.157a3.427,3.427,0,0,1-3.423-3.424V6.923a3.445,3.445,0,0,1,2.317-3.25L311.269.244A3.459,3.459,0,0,1,315.785,3.5V34.31a3.446,3.446,0,0,1-2.316,3.249l-10.287,3.43a3.581,3.581,0,0,1-1.09.168Zm10.27-38.513a1.007,1.007,0,0,0-.306.045L301.814,6.1a.883.883,0,0,0-.579.82V37.733a.9.9,0,0,0,1.162.811l10.241-3.415a.885.885,0,0,0,.579-.82V3.5A.857.857,0,0,0,312.361,2.644Zm0,0" transform="translate(-274.704 -0.076)"/>
  <path id="Path_112" data-name="Path 112" d="M171.952,8.559a1.284,1.284,0,0,1-1.284-1.284V4.707A4.711,4.711,0,0,1,175.375,0h19.257a1.284,1.284,0,0,1,0,2.568H175.375a2.142,2.142,0,0,0-2.139,2.14V7.275A1.284,1.284,0,0,1,171.952,8.559Zm0,0" transform="translate(-156.974)"/>
  <path id="Path_113" data-name="Path 113" d="M182.222,349.891h-6.847a4.711,4.711,0,0,1-4.707-4.707v-2.568a1.284,1.284,0,1,1,2.568,0v2.568a2.142,2.142,0,0,0,2.139,2.14h6.847a1.284,1.284,0,1,1,0,2.568Zm0,0" transform="translate(-156.974 -313.945)"/>
</svg>
