<svg id="edit" xmlns="http://www.w3.org/2000/svg" width="44.156" height="44.158" viewBox="0 0 44.156 44.158">
  <path id="Path_102" data-name="Path 102" d="M12.315,34.586a.928.928,0,0,1-.651-.269.919.919,0,0,1-.252-.83l1.3-6.5a.9.9,0,0,1,.252-.471L27.275,12.2a2.765,2.765,0,0,1,3.9,0l2.6,2.6a2.762,2.762,0,0,1,0,3.9L19.468,33.017a.915.915,0,0,1-.471.252l-6.5,1.3A.976.976,0,0,1,12.315,34.586Zm2.149-6.971-.975,4.878,4.878-.975L32.48,17.4a.921.921,0,0,0,0-1.3l-2.6-2.6a.921.921,0,0,0-1.3,0Zm4.355,4.751h.018Z" transform="translate(9.569 9.572)"/>
  <path id="Path_103" data-name="Path 103" d="M17.479,36.118H4.6a4.6,4.6,0,0,1-4.6-4.6V7.6A4.6,4.6,0,0,1,4.6,3H8.28a.92.92,0,0,1,0,1.84H4.6A2.763,2.763,0,0,0,1.84,7.6V31.519a2.763,2.763,0,0,0,2.76,2.76H17.479a.92.92,0,1,1,0,1.84Z" transform="translate(0 2.52)"/>
  <path id="Path_104" data-name="Path 104" d="M20.28,19.559a.92.92,0,0,1-.92-.92V7.6A2.763,2.763,0,0,0,16.6,4.84H12.92a.92.92,0,0,1,0-1.84H16.6a4.6,4.6,0,0,1,4.6,4.6V18.639A.92.92,0,0,1,20.28,19.559Z" transform="translate(10.079 2.52)"/>
  <path id="Path_105" data-name="Path 105" d="M17.8,11.039H6.76A2.763,2.763,0,0,1,4,8.28V4.6a.92.92,0,0,1,.92-.92H7.772a4.6,4.6,0,0,1,9.016,0h2.852a.92.92,0,0,1,.92.92V8.28A2.763,2.763,0,0,1,17.8,11.039ZM5.84,5.52V8.28a.923.923,0,0,0,.92.92H17.8a.923.923,0,0,0,.92-.92V5.52h-2.76a.92.92,0,0,1-.92-.92,2.76,2.76,0,1,0-5.52,0,.92.92,0,0,1-.92.92Z" transform="translate(3.36)"/>
  <path id="Path_106" data-name="Path 106" d="M22.319,9.84H3.92A.92.92,0,0,1,3.92,8h18.4a.92.92,0,0,1,0,1.84Z" transform="translate(2.52 6.719)"/>
  <path id="Path_107" data-name="Path 107" d="M22.319,12.84H3.92a.92.92,0,0,1,0-1.84h18.4a.92.92,0,1,1,0,1.84Z" transform="translate(2.52 9.239)"/>
  <path id="Path_108" data-name="Path 108" d="M22.319,15.84H3.92a.92.92,0,1,1,0-1.84h18.4a.92.92,0,1,1,0,1.84Z" transform="translate(2.52 11.759)"/>
</svg>
