<svg xmlns="http://www.w3.org/2000/svg" width="47.001" height="49.64" viewBox="0 0 47.001 49.64">
  <g id="arrowheads" transform="translate(-202.498 -23.432)">
    <g id="Group_2" data-name="Group 2" transform="translate(202.999 23.935)">
      <path id="Path_2" data-name="Path 2" d="M20.69,29.366C14.1,28.1,7.954,25.3,1.451,23.947c-.632-.09-1.536.361-1.445,1.084.813,6.955,3.252,13.549,5.871,20.052.271.723,1.355.542,1.265-.181,2.258-1.265,3.161-5.871,3.432-8.581a20.171,20.171,0,0,0,10.568-4.968A1.2,1.2,0,0,0,20.69,29.366ZM8.406,35.328c-.09,2.439-1.355,4.516-2.077,6.684A89.926,89.926,0,0,1,2.444,26.566c5.239,1.265,10.207,3.252,15.446,4.607a21.354,21.354,0,0,1-8.581,3.161C8.677,34.244,8.406,34.786,8.406,35.328Z" transform="translate(0.001 -23.935)" fill="#374151" stroke="rgba(112,112,112,0.2)" stroke-width="1"/>
      <path id="Path_3" data-name="Path 3" d="M125.48,134.173H107.415a1.173,1.173,0,0,0-.994,1.716c2.348,5.239,4.787,10.478,6.955,15.9a.7.7,0,0,0,1.265.09.674.674,0,0,0,1.265-.271c.181-3.071.09-6.323,1.716-9.032,1.626-2.619,5.69-3.974,8.4-5.148a.885.885,0,0,0,.361-1.355A1.185,1.185,0,0,0,125.48,134.173Zm-9.665,7.316c-1.807,2.529-1.445,6.413-1.265,9.484a103.042,103.042,0,0,0-5.42-14.452h13.82C120.241,137.605,117.532,139.05,115.816,141.489Z" transform="translate(-92.363 -113.536)" fill="#374151" stroke="rgba(112,112,112,0.2)" stroke-width="1"/>
      <path id="Path_4" data-name="Path 4" d="M221.428,198.291c-5.781-.09-11.471-.452-17.162.632a1.239,1.239,0,0,0-.723,1.806c2.529,4.336,4.787,8.852,7.587,13.1a.821.821,0,0,0,.723.361c.181.632,1.355.542,1.265-.181a17.735,17.735,0,0,1,.542-5.781c.361-1.987.361-1.806,2.077-2.8a21.457,21.457,0,0,0,6.052-4.7C222.964,200.278,222.874,198.291,221.428,198.291Zm-8.942,6.233a.994.994,0,0,0-.542.9c.09,1.806-.271,3.7-.361,5.51-1.626-3.342-3.342-6.774-5.149-10.026a67.536,67.536,0,0,1,12.1-.361c-.181.181-.452.361-.632.542A18.992,18.992,0,0,1,212.486,204.524Z" transform="translate(-176.605 -165.978)" fill="#374151" stroke="rgba(112,112,112,0.2)" stroke-width="1"/>
    </g>
  </g>
</svg>
