<svg xmlns="http://www.w3.org/2000/svg" width="27.388" height="24.226" viewBox="0 0 27.388 24.226">
  <g id="comm" transform="translate(0.509 0.5)">
    <g id="Group_1" data-name="Group 1" transform="translate(0)">
      <path id="Path_1" data-name="Path 1" d="M3.839,53.762H1.97l1.322-1.322A4.473,4.473,0,0,0,4.569,49.8,10.073,10.073,0,0,1,.622,45.128a9.141,9.141,0,0,1-.264-5.857,11.467,11.467,0,0,1,4.394-6.135,14.357,14.357,0,0,1,8.482-2.6,14.219,14.219,0,0,1,9.8,3.342,10.031,10.031,0,0,1,2.5,11.491,10.318,10.318,0,0,1-2.508,3.49,14.186,14.186,0,0,1-9.8,3.355A17.827,17.827,0,0,1,8.8,51.65a6.926,6.926,0,0,1-4.959,2.113Zm9.394-21.678c-6.4,0-10.331,3.818-11.384,7.6-1,3.576.472,6.955,3.925,9.038l.386.233-.012.45a6.1,6.1,0,0,1-.617,2.527,5.485,5.485,0,0,0,2.425-1.659l.327-.387.485.145a16.015,16.015,0,0,0,4.463.632c7.968,0,11.6-4.825,11.6-9.307a8.515,8.515,0,0,0-2.838-6.338,12.712,12.712,0,0,0-8.759-2.936Z" transform="translate(0 -30.536)" stroke="#707070" stroke-linejoin="round" stroke-width="1"/>
    </g>
  </g>
</svg>
