<svg xmlns="http://www.w3.org/2000/svg" width="17.51" height="28.211" viewBox="0 0 17.51 28.211">
  <g id="thunder" opacity="0.9">
    <g id="Group_3" data-name="Group 3" transform="translate(0 0)">
      <path id="Path_5" data-name="Path 5" d="M129.343,10.98a1,1,0,0,0-.815-.4h-6.81V.88a.907.907,0,0,0-.77-.862,1.006,1.006,0,0,0-1.091.5l-7.782,15.869a.809.809,0,0,0,.074.838,1,1,0,0,0,.815.4h6.81v9.7a.907.907,0,0,0,.77.862,1.14,1.14,0,0,0,.2.019.984.984,0,0,0,.889-.522l7.782-15.869A.812.812,0,0,0,129.343,10.98Zm-7.625,12.195V16.75a.931.931,0,0,0-.973-.882h-6.284l5.311-10.833V11.46a.931.931,0,0,0,.973.882h6.284Z" transform="translate(-111.99 0)"/>
    </g>
  </g>
</svg>
